<?xml version="1.0" encoding="UTF-8"?>
<svg id="Calque_1" data-name="Calque 1" xmlns="http://www.w3.org/2000/svg" version="1.1" viewBox="0 0 800 800">
  <defs>
    <style>
      .cls-1 {
        fill: #25d366;
        fill-rule: evenodd;
        stroke-width: 0px;
      }
    </style>
  </defs>
  <path class="cls-1" d="M646.2,164.3c-62.2-62.3-145-96.7-233.2-96.7-181.8,0-329.7,147.9-329.7,329.7,0,58.1,15.2,114.8,44,164.8l-46.8,170.9,174.8-45.9c48.2,26.3,102.4,40.1,157.6,40.1h.1c181.7,0,329.7-147.9,329.7-329.7,0-88.1-34.2-170.9-96.5-233.3h0ZM413,671.6h-.1c-49.2,0-97.4-13.2-139.5-38.2l-10-5.9-103.7,27.2,27.7-101.1-6.5-10.4c-27.4-43.6-41.9-94.1-41.9-145.9,0-151.1,123-274,274.2-274,73.2,0,142,28.6,193.8,80.4,51.7,51.8,80.2,120.7,80.2,193.9,0,151.1-123,274.1-274.1,274.1h0ZM563.3,466.3c-8.2-4.1-48.7-24-56.3-26.8-7.6-2.8-13-4.1-18.5,4.1-5.5,8.3-21.3,26.8-26.1,32.3-4.8,5.5-9.6,6.2-17.9,2.1-8.2-4.1-34.8-12.8-66.3-40.9-24.5-21.9-41-48.8-45.8-57.1-4.8-8.3-.5-12.7,3.6-16.8,3.7-3.7,8.2-9.6,12.4-14.4,4.1-4.8,5.5-8.3,8.2-13.7,2.8-5.5,1.4-10.3-.7-14.4-2.1-4.1-18.5-44.7-25.4-61.2-6.7-16.1-13.5-13.9-18.5-14.1-4.8-.2-10.3-.3-15.8-.3s-14.4,2.1-22,10.3c-7.6,8.3-28.8,28.2-28.8,68.7s29.5,79.7,33.6,85.2c4.1,5.5,58.1,88.7,140.7,124.4,19.7,8.5,35,13.6,47,17.4,19.7,6.3,37.7,5.4,51.9,3.3,15.8-2.4,48.7-19.9,55.6-39.2,6.9-19.2,6.9-35.7,4.8-39.2s-7.6-5.5-15.8-9.6h0Z"/>
</svg>